<svg width="286" height="85" viewBox="0 0 286 85" fill="none" xmlns="http://www.w3.org/2000/svg">
<g clip-path="url(#clip0_504_4442)">
<path d="M70.0033 68.0151L66.7891 23.9309V23.8014C66.7891 23.3223 67.0533 23.1019 67.5855 23.1019H75.4426C75.5406 23.0886 75.6403 23.0973 75.7343 23.1274C75.8283 23.1575 75.914 23.2082 75.985 23.2757C76.0559 23.3431 76.1102 23.4256 76.1437 23.5167C76.1772 23.6078 76.1891 23.7052 76.1783 23.8014L76.9105 47.2776C76.9533 47.4525 77.0176 47.5364 77.1069 47.5364C77.1962 47.5364 77.2641 47.4525 77.3105 47.2776L83.7676 23.8014C83.809 23.5935 83.9266 23.4075 84.0983 23.2786C84.27 23.1498 84.484 23.0869 84.6998 23.1019H91.2248C91.3226 23.0884 91.4222 23.0971 91.5161 23.1272C91.6099 23.1574 91.6955 23.2081 91.7662 23.2757C91.8369 23.3432 91.8908 23.4257 91.9239 23.5169C91.957 23.608 91.9683 23.7054 91.9569 23.8014L92.8248 47.2776C92.8248 47.4525 92.8783 47.5364 92.9891 47.5364C93.0998 47.5364 93.1784 47.4525 93.2212 47.2776L99.4141 23.8014C99.4517 23.5877 99.5698 23.3955 99.745 23.2627C99.9201 23.13 100.14 23.0664 100.36 23.0844H108.003C108.535 23.0844 108.735 23.3677 108.603 23.9309L94.8891 68.0011C94.8455 68.2087 94.7269 68.3938 94.5549 68.5224C94.3829 68.6509 94.1693 68.7142 93.9533 68.7006H86.9641C86.8661 68.714 86.7664 68.7052 86.6724 68.6751C86.5784 68.645 86.4927 68.5943 86.4217 68.5269C86.3508 68.4594 86.2965 68.377 86.263 68.2859C86.2295 68.1948 86.2176 68.0974 86.2283 68.0011L85.4319 43.8674C85.4319 43.696 85.3891 43.6086 85.2998 43.6086C85.2105 43.6086 85.1212 43.696 85.0319 43.8674L78.5748 68.0011C78.5313 68.208 78.4132 68.3927 78.242 68.5212C78.0707 68.6497 77.8579 68.7134 77.6426 68.7006H70.7819C70.2498 68.7321 70.0033 68.4908 70.0033 68.0151Z" fill="#FBFBFB"/>
<path d="M135.401 30.7477C135.327 30.8212 135.239 30.8793 135.142 30.9183C135.045 30.9574 134.941 30.9767 134.836 30.9751H121.318C121.273 30.9686 121.227 30.9726 121.184 30.9866C121.141 31.0007 121.101 31.0245 121.069 31.0561C121.037 31.0876 121.012 31.1262 120.998 31.1686C120.984 31.211 120.98 31.2561 120.986 31.3003L119.643 41.6219C119.643 41.8387 119.733 41.9472 119.911 41.9472H127.701C127.801 41.9434 127.901 41.9619 127.993 42.0012C128.085 42.0406 128.167 42.0998 128.233 42.1745C128.298 42.2503 128.345 42.3401 128.368 42.4367C128.392 42.5333 128.392 42.634 128.368 42.7306L127.568 49.0544C127.527 49.2646 127.422 49.4581 127.268 49.6105C127.194 49.6841 127.106 49.7422 127.008 49.7812C126.911 49.8203 126.806 49.8396 126.701 49.8378H118.986C118.722 49.8378 118.59 49.9463 118.59 50.1631L117.322 60.5091C117.234 60.726 117.323 60.8344 117.59 60.8344H131.04C131.145 60.8331 131.25 60.8525 131.347 60.8916C131.445 60.9306 131.533 60.9885 131.608 61.0618C131.682 61.1323 131.737 61.2207 131.766 61.3183C131.794 61.4159 131.797 61.5192 131.772 61.6179L130.972 67.9416C130.932 68.1518 130.829 68.3455 130.676 68.4977C130.601 68.571 130.513 68.6289 130.415 68.6679C130.318 68.707 130.213 68.7264 130.108 68.7251H107.936C107.835 68.7289 107.735 68.7104 107.642 68.6711C107.549 68.6317 107.467 68.5725 107.401 68.4977C107.336 68.4217 107.29 68.3317 107.267 68.2351C107.244 68.1385 107.244 68.038 107.268 67.9416L112.797 23.8714C112.837 23.6603 112.941 23.4662 113.097 23.3152C113.17 23.2418 113.258 23.1837 113.355 23.1446C113.452 23.1055 113.556 23.0862 113.661 23.0879H135.836C135.937 23.0846 136.037 23.1033 136.129 23.1427C136.221 23.182 136.303 23.241 136.368 23.3152C136.433 23.3913 136.479 23.4813 136.502 23.5779C136.525 23.6745 136.525 23.775 136.501 23.8714L135.715 30.1916C135.671 30.4043 135.562 30.5986 135.401 30.7477Z" fill="#FBFBFB"/>
<path d="M158.306 65.4058C155.617 67.6233 152.321 68.7321 148.416 68.7321H136.231C136.13 68.7359 136.03 68.7174 135.938 68.678C135.846 68.6386 135.764 68.5794 135.698 68.5047C135.633 68.4291 135.586 68.3391 135.563 68.2424C135.54 68.1456 135.541 68.0449 135.566 67.9486L141.091 23.8784C141.131 23.6673 141.236 23.4732 141.391 23.3222C141.465 23.2487 141.554 23.1906 141.651 23.1515C141.749 23.1124 141.854 23.0932 141.959 23.0949H152.745C156.65 23.0949 159.679 23.953 161.834 25.6692C163.989 27.3853 165.06 29.9398 165.048 33.3325C165.048 33.7662 165.002 34.5077 164.916 35.55C164.381 39.8101 162.516 42.9405 159.323 44.9411C159.145 45.0706 159.123 45.2 159.256 45.3294C161.827 47.33 163.114 50.1783 163.116 53.8741C163.116 54.2659 163.072 54.9397 162.984 55.8958C162.551 60.0206 160.991 63.1907 158.306 65.4058ZM152.281 59.2115C153.209 58.1692 153.804 56.6909 154.066 54.7765C154.117 54.3213 154.139 53.8633 154.131 53.4054C154.131 51.8851 153.798 50.6901 153.134 49.8204C152.813 49.3949 152.39 49.0534 151.902 48.8259C151.415 48.5984 150.877 48.4919 150.338 48.5157H147.406C147.231 48.5157 147.095 48.6242 147.009 48.841L145.609 60.4497C145.521 60.6665 145.61 60.775 145.877 60.775H148.734C149.407 60.7907 150.075 60.6584 150.689 60.3878C151.302 60.1172 151.846 59.7153 152.281 59.2115ZM149.284 31.3004L147.956 41.5379C147.956 41.7548 148.041 41.8632 148.22 41.8632H150.552C152.238 41.8632 153.558 41.2803 154.513 40.1144C155.467 38.9485 155.944 37.3163 155.941 35.2177C155.941 33.8187 155.584 32.7694 154.909 32.0523C154.234 31.3353 153.234 30.9786 151.945 30.9786H149.613C149.568 30.9728 149.523 30.9772 149.48 30.9913C149.438 31.0055 149.399 31.029 149.367 31.0601C149.336 31.0912 149.312 31.1291 149.297 31.1707C149.283 31.2124 149.278 31.2567 149.284 31.3004Z" fill="#FBFBFB"/>
<path d="M190.898 54.2554C190.587 56.354 190.298 57.9734 190.03 59.1521C189.275 62.2836 187.755 64.7506 185.469 66.5531C183.184 68.3555 180.327 69.2579 176.898 69.2603C173.348 69.2603 170.574 68.3031 168.577 66.3887C166.579 64.4743 165.696 61.9315 165.927 58.7603C165.927 57.9804 166.016 56.7177 166.194 54.9794C166.197 54.8719 166.222 54.766 166.267 54.668C166.312 54.5701 166.377 54.4819 166.458 54.4089C166.538 54.3359 166.633 54.2794 166.736 54.2428C166.839 54.2062 166.949 54.1903 167.059 54.1959H174.584C175.159 54.1959 175.405 54.4582 175.316 54.9794C175.185 55.9066 175.118 56.8415 175.116 57.7775C175.116 58.9061 175.36 59.7863 175.848 60.4182C176.088 60.7283 176.401 60.9764 176.761 61.1409C177.12 61.3055 177.516 61.3816 177.912 61.3626C178.328 61.3633 178.739 61.283 179.122 61.1262C179.505 60.9695 179.853 60.7395 180.144 60.4497C180.834 59.7611 181.326 58.9071 181.573 57.9734C181.709 57.3181 181.975 55.7524 182.373 53.276C182.572 51.6748 182.661 50.0623 182.641 48.4493C182.642 47.6229 182.36 46.8201 181.841 46.1688C181.606 45.8927 181.31 45.6726 180.975 45.5253C180.64 45.378 180.276 45.3074 179.909 45.3189C179.145 45.3618 178.419 45.662 177.855 46.1688C177.698 46.2936 177.515 46.3831 177.319 46.4312C177.208 46.4304 177.099 46.3992 177.005 46.3411C176.911 46.283 176.836 46.2003 176.787 46.1024L173.391 42.1256C173.288 41.9953 173.241 41.8311 173.259 41.6674C173.256 41.5471 173.278 41.4275 173.323 41.3157C173.369 41.204 173.437 41.1023 173.523 41.0168L182.498 31.3004C182.673 31.0415 182.63 30.9086 182.362 30.9086H170.712C170.611 30.9132 170.51 30.8951 170.418 30.8557C170.325 30.8163 170.242 30.7566 170.177 30.6813C170.111 30.6053 170.065 30.5154 170.042 30.4187C170.019 30.3221 170.02 30.2215 170.044 30.1252L170.844 23.8679C170.884 23.6568 170.989 23.4627 171.144 23.3118C171.218 23.2383 171.306 23.1802 171.403 23.1411C171.5 23.102 171.604 23.0827 171.709 23.0844H193.948C194.049 23.0811 194.149 23.0998 194.242 23.1391C194.335 23.1784 194.417 23.2374 194.484 23.3118C194.549 23.3878 194.594 23.4778 194.617 23.5744C194.64 23.671 194.64 23.7715 194.616 23.8679L193.816 30.3875C193.745 30.7461 193.585 31.0823 193.352 31.3668L184.969 40.5726C184.794 40.8314 184.816 40.9609 185.037 40.9609C185.935 41.034 186.803 41.3071 187.576 41.7594C188.349 42.2116 189.007 42.831 189.498 43.5701C190.61 45.137 191.165 47.0934 191.162 49.4391C191.166 51.0481 191.078 52.656 190.898 54.2554Z" fill="#99E24D"/>
<path d="M194.225 68.5047C194.158 68.4294 194.111 68.3396 194.088 68.2428C194.064 68.1461 194.065 68.0452 194.089 67.9486L199.617 23.8784C199.657 23.6673 199.762 23.4732 199.917 23.3222C199.991 23.2488 200.079 23.1907 200.176 23.1516C200.273 23.1125 200.377 23.0932 200.482 23.0949H212.139C215.734 23.0949 218.564 24.0626 220.628 25.9979C222.692 27.9333 223.725 30.5297 223.725 33.7872C223.725 34.2244 223.678 34.8749 223.592 35.7458L220.992 56.0916C220.502 59.918 218.938 62.9831 216.3 65.2869C213.662 67.5907 210.37 68.7391 206.425 68.7321H194.757C194.656 68.7361 194.556 68.7177 194.464 68.6784C194.372 68.639 194.29 68.5796 194.225 68.5047ZM204.41 60.8589L207.342 60.7924C207.927 60.7648 208.498 60.6169 209.02 60.3584C209.542 60.0998 210.002 59.7365 210.371 59.292C211.287 58.2186 211.855 56.9022 212.003 55.511L214.4 36.3404C214.451 35.9731 214.473 35.6024 214.467 35.2317C214.467 33.9282 214.167 32.8953 213.567 32.1328C213.265 31.7553 212.874 31.4547 212.427 31.2563C211.981 31.0578 211.493 30.9674 211.003 30.9926H208.146C208.101 30.9861 208.055 30.99 208.012 31.0041C207.968 31.0182 207.929 31.0419 207.897 31.0735C207.864 31.1051 207.84 31.1437 207.826 31.1861C207.811 31.2285 207.807 31.2736 207.814 31.3178L204.146 60.5091C204.057 60.733 204.146 60.8589 204.41 60.8589Z" fill="#FBFBFB"/>
<path d="M252.791 30.7478C252.718 30.8213 252.63 30.8793 252.533 30.9184C252.436 30.9575 252.332 30.9768 252.227 30.9751H238.709C238.664 30.9687 238.618 30.9726 238.575 30.9867C238.531 31.0007 238.492 31.0245 238.46 31.0561C238.427 31.0877 238.403 31.1262 238.389 31.1687C238.374 31.2111 238.37 31.2562 238.377 31.3004L237.045 41.6219C237.045 41.8388 237.13 41.9472 237.309 41.9472H245.102C245.202 41.9434 245.302 41.9619 245.395 42.0013C245.487 42.0407 245.569 42.0999 245.634 42.1746C245.699 42.2506 245.745 42.3406 245.768 42.4372C245.791 42.5338 245.79 42.6343 245.766 42.7307L244.966 49.0369C244.928 49.2476 244.824 49.4416 244.67 49.593C244.596 49.6663 244.507 49.7242 244.409 49.7632C244.312 49.8023 244.207 49.8217 244.102 49.8204H236.377C236.113 49.8204 235.98 49.9288 235.98 50.1457L234.713 60.5092C234.625 60.726 234.714 60.8345 234.98 60.8345H248.43C248.535 60.8328 248.64 60.8521 248.737 60.8912C248.834 60.9303 248.921 60.9883 248.995 61.0618C249.07 61.132 249.125 61.2203 249.155 61.3179C249.184 61.4155 249.187 61.519 249.163 61.6179L248.363 67.9417C248.323 68.1519 248.219 68.3456 248.066 68.4978C247.992 68.571 247.903 68.6289 247.806 68.668C247.708 68.707 247.604 68.7265 247.498 68.7251H225.327C225.226 68.7289 225.125 68.7105 225.033 68.6711C224.94 68.6318 224.857 68.5725 224.791 68.4978C224.726 68.4217 224.68 68.3317 224.657 68.2351C224.635 68.1385 224.635 68.038 224.659 67.9417L230.184 23.8714C230.227 23.6606 230.332 23.467 230.488 23.3153C230.561 23.2415 230.648 23.1832 230.746 23.1441C230.843 23.105 230.947 23.0859 231.052 23.0879H253.216C253.316 23.0847 253.415 23.1034 253.507 23.1428C253.598 23.1821 253.68 23.2411 253.745 23.3153C253.811 23.3906 253.858 23.4804 253.882 23.5772C253.905 23.674 253.905 23.7748 253.88 23.8714L253.08 30.1951C253.042 30.4032 252.941 30.5954 252.791 30.7478Z" fill="#FBFBFB"/>
<path d="M260.807 68.0151L257.078 23.9448V23.8154C257.078 23.3362 257.342 23.1159 257.878 23.1159H266.2C266.296 23.1053 266.394 23.1161 266.485 23.1475C266.577 23.179 266.66 23.2302 266.729 23.2974C266.797 23.3646 266.849 23.446 266.881 23.5357C266.914 23.6254 266.925 23.721 266.914 23.8154L267.782 52.496C267.782 52.6709 267.835 52.7584 267.946 52.7584C268.057 52.7584 268.135 52.6709 268.182 52.496L276.103 23.8154C276.145 23.6078 276.263 23.4223 276.435 23.2935C276.606 23.1648 276.82 23.1016 277.035 23.1159H285.092C285.625 23.1159 285.807 23.3992 285.625 23.9623L270.778 68.0325C270.735 68.2395 270.617 68.4241 270.445 68.5526C270.274 68.6811 270.061 68.7448 269.846 68.7321H261.539C261.439 68.7461 261.338 68.7373 261.243 68.7062C261.147 68.6752 261.06 68.6227 260.989 68.5531C260.918 68.4835 260.865 68.3987 260.833 68.3052C260.801 68.2118 260.792 68.1125 260.807 68.0151Z" fill="#FBFBFB"/>
<path d="M3.92969 61.5584L19.2511 59.25L55.0011 69.2532L27.5011 73.3945L3.92969 61.5584Z" fill="#414141"/>
<path d="M7.85938 15.3896L27.5022 10.5804L39.2879 23.0844L32.0344 24.8612L7.85938 15.3896Z" fill="#414141"/>
<path d="M0 38.474L19.4107 35.3052L47.1429 46.1688L34.7357 48.194L0 38.474Z" fill="#414141"/>
<path d="M7.85938 15.3896L47.1451 30.7792V46.1688L7.85938 30.7792V15.3896Z" fill="#4CE577"/>
<path d="M27.5 0L39.2857 7.69481V23.0844L27.5 15.3896V0Z" fill="#99E24D"/>
<path d="M0 38.474L55 53.8636V69.2532L0 53.8636V38.474Z" fill="#4D98E2"/>
<path d="M3.92969 61.5585L27.5011 69.2533V84.6429L3.92969 76.9481V61.5585Z" fill="#795CE5"/>
</g>
<defs>
<clipPath id="clip0_504_4442">
<rect width="285.714" height="84.6429" fill="white"/>
</clipPath>
</defs>
</svg>
